<svg xmlns="http://www.w3.org/2000/svg" viewBox="0 0 16 16" id="Gamepad--Streamline-Font-Awesome" height="16" width="16">
  <desc>
    Gamepad Streamline Icon: https://streamlinehq.com
  </desc>
<!--! Font Awesome Free 6.5.2 by @fontawesome - https://fontawesome.com License - https://fontawesome.com/license/free (Icons: CC BY 4.0, Fonts: SIL OFL 1.1, Code: MIT License) Copyright 2024 Fonticons, Inc.-->
  <path d="M4.864000000000001 3.2960000000000003C2.2670000000000003 3.2960000000000003 0.16000000000000003 5.4030000000000005 0.16000000000000003 8s2.107 4.704 4.704 4.704h6.272c2.597 0 4.704 -2.107 4.704 -4.704s-2.107 -4.704 -4.704 -4.704H4.864000000000001Zm7.448 2.548c0.7544050000000001 0.0000325 1.225915 0.8167225 0.8486825 1.4700375 -0.17506500000000003 0.30319250000000003 -0.49857750000000006 0.4899625000000001 -0.8486825 0.4899625000000001 -0.7544050000000001 0 -1.2259075 -0.8166675 -0.848705 -1.47 0.17506750000000001 -0.3032275 0.49856999999999996 -0.49001500000000003 0.848705 -0.49000000000000005ZM9.764000000000001 9.176c0 -0.7544050000000001 0.8166675 -1.2259075 1.47 -0.848705 0.30321250000000005 0.17506 0.49000000000000005 0.49858500000000006 0.49000000000000005 0.848705 0 0.7544050000000001 -0.8166675 1.2259075 -1.47 0.848705 -0.30321250000000005 -0.17506 -0.49000000000000005 -0.49858500000000006 -0.49000000000000005 -0.848705ZM4.276 6.628c0 -0.32585000000000003 0.26215000000000005 -0.588 0.588 -0.588s0.588 0.26215000000000005 0.588 0.588v0.784h0.784c0.32585000000000003 0 0.588 0.26215000000000005 0.588 0.588s-0.26215000000000005 0.588 -0.588 0.588h-0.784v0.784c0 0.32585000000000003 -0.26215000000000005 0.588 -0.588 0.588s-0.588 -0.26215000000000005 -0.588 -0.588v-0.784h-0.784c-0.32585000000000003 0 -0.588 -0.26215000000000005 -0.588 -0.588s0.26215000000000005 -0.588 0.588 -0.588h0.784v-0.784Z" fill="currentColor" stroke-width="0.025"></path>
</svg>
